{"scene":0,"asset":{"generator":"ImageToStl.com","version":"2.0"},"scenes":[{"name":"Scene","nodes":[0]}],"nodes":[{"name":"Node0","children":[1,2,3,4,5,6,7,8,9,10,11,12,13,14,15,16,17,18]},{"name":"Node1","mesh":0},{"name":"Node2","mesh":1},{"name":"Node3","mesh":2},{"name":"Node4","mesh":3},{"name":"Node5","mesh":4},{"name":"Node6","mesh":5},{"name":"Node7","mesh":6},{"name":"Node8","mesh":7},{"name":"Node9","mesh":8},{"name":"Node10","mesh":9},{"name":"Node11","mesh":10},{"name":"Node12","mesh":11},{"name":"Node13","mesh":12},{"name":"Node14","mesh":13},{"name":"Node15","mesh":14},{"name":"Node16","mesh":15},{"name":"Node17","mesh":16},{"name":"Node18","mesh":17}],"materials":[{"name":"metal","pbrMetallicRoughness":{"baseColorFactor":[0.8,0.8,0.8,1.0],"metallicFactor":0.859091,"roughnessFactor":0.44429752},"emissiveFactor":[0.0,0.0,0.0],"doubleSided":true},{"name":"metal 2","pbrMetallicRoughness":{"baseColorFactor":[0.65563,0.626314,0.114942,1.0],"metallicFactor":0.409091,"roughnessFactor":0.2697521},"emissiveFactor":[0.0,0.0,0.0],"doubleSided":true},{"name":"plastik","pbrMetallicRoughness":{"baseColorFactor":[0.021855,0.02167,0.025038,1.0],"metallicFactor":0.568182,"roughnessFactor":0.8677686},"emissiveFactor":[0.0,0.0,0.0],"doubleSided":true},{"name":"hrom","pbrMetallicRoughness":{"baseColorFactor":[1.0,1.0,1.0,1.0],"metallicFactor":0.0,"roughnessFactor":0.25413224},"emissiveFactor":[0.0,0.0,0.0],"doubleSided":true},{"name":"glass","pbrMetallicRoughness":{"baseColorFactor":[0.8,0.8,0.8,1.0],"metallicFactor":0.5,"roughnessFactor":0.0},"emissiveFactor":[0.0,0.0,0.0],"doubleSided":true},{"name":"Material.001","pbrMetallicRoughness":{"baseColorFactor":[0.920893,0.969023,0.97728,1.0],"metallicFactor":0.5,"roughnessFactor":0.0},"emissiveFactor":[0.0,0.0,0.0],"doubleSided":true},{"name":"x1","pbrMetallicRoughness":{"baseColorFactor":[0.0,0.0,0.0,1.0],"metallicFactor":0.0,"roughnessFactor":1.0},"doubleSided":true}],"meshes":[{"name":"Mesh0","primitives":[{"indices":3,"material":0,"attributes":{"POSITION":0,"NORMAL":1,"TEXCOORD_0":2}}]},{"name":"Mesh0","primitives":[{"indices":7,"material":0,"attributes":{"POSITION":4,"NORMAL":5,"TEXCOORD_0":6}}]},{"name":"Mesh0","primitives":[{"indices":11,"material":0,"attributes":{"POSITION":8,"NORMAL":9,"TEXCOORD_0":10}}]},{"name":"Mesh0","primitives":[{"indices":15,"material":0,"attributes":{"POSITION":12,"NORMAL":13,"TEXCOORD_0":14}}]},{"name":"Mesh0","primitives":[{"indices":19,"material":1,"attributes":{"POSITION":16,"NORMAL":17,"TEXCOORD_0":18}}]},{"name":"Mesh0","primitives":[{"indices":23,"material":2,"attributes":{"POSITION":20,"NORMAL":21,"TEXCOORD_0":22}}]},{"name":"Mesh0","primitives":[{"indices":27,"material":3,"attributes":{"POSITION":24,"NORMAL":25,"TEXCOORD_0":26}}]},{"name":"Mesh0","primitives":[{"indices":31,"material":4,"attributes":{"POSITION":28,"NORMAL":29,"TEXCOORD_0":30}}]},{"name":"Mesh0","primitives":[{"indices":35,"material":0,"attributes":{"POSITION":32,"NORMAL":33,"TEXCOORD_0":34}}]},{"name":"Mesh0","primitives":[{"indices":39,"material":0,"attributes":{"POSITION":36,"NORMAL":37,"TEXCOORD_0":38}}]},{"name":"Mesh0","primitives":[{"indices":43,"material":0,"attributes":{"POSITION":40,"NORMAL":41,"TEXCOORD_0":42}}]},{"name":"Mesh0","primitives":[{"indices":47,"material":0,"attributes":{"POSITION":44,"NORMAL":45,"TEXCOORD_0":46}}]},{"name":"Mesh0","primitives":[{"indices":51,"material":1,"attributes":{"POSITION":48,"NORMAL":49,"TEXCOORD_0":50}}]},{"name":"Mesh0","primitives":[{"indices":55,"material":2,"attributes":{"POSITION":52,"NORMAL":53,"TEXCOORD_0":54}}]},{"name":"Mesh0","primitives":[{"indices":59,"material":6,"attributes":{"POSITION":56,"NORMAL":57,"TEXCOORD_0":58}}]},{"name":"Mesh0","primitives":[{"indices":63,"material":2,"attributes":{"POSITION":60,"NORMAL":61,"TEXCOORD_0":62}}]},{"name":"Mesh0","primitives":[{"indices":67,"material":5,"attributes":{"POSITION":64,"NORMAL":65,"TEXCOORD_0":66}}]},{"name":"Mesh0","primitives":[{"indices":71,"material":6,"attributes":{"POSITION":68,"NORMAL":69,"TEXCOORD_0":70}}]}],"accessors":[{"bufferView":0,"componentType":5126,"count":263,"type":"VEC3","min":[-0.7788294,-6.323929,5.28876],"max":[-0.70994383,-6.217739,5.544422]},{"bufferView":1,"componentType":5126,"count":263,"type":"VEC3"},{"bufferView":2,"componentType":5126,"count":263,"type":"VEC2"},{"bufferView":3,"componentType":5123,"count":3852,"type":"SCALAR"},{"bufferView":4,"componentType":5126,"count":263,"type":"VEC3","min":[-0.94289774,-6.3217764,5.28876],"max":[-0.86276895,-6.2155867,5.544422]},{"bufferView":5,"componentType":5126,"count":263,"type":"VEC3"},{"bufferView":6,"componentType":5126,"count":263,"type":"VEC2"},{"bufferView":7,"componentType":5123,"count":3852,"type":"SCALAR"},{"bufferView":8,"componentType":5126,"count":563,"type":"VEC3","min":[-0.83688533,-6.294613,5.381055],"max":[-0.75910485,-6.2494793,5.452626]},{"bufferView":9,"componentType":5126,"count":563,"type":"VEC3"},{"bufferView":10,"componentType":5126,"count":563,"type":"VEC2"},{"bufferView":11,"componentType":5123,"count":8604,"type":"SCALAR"},{"bufferView":12,"componentType":5126,"count":263,"type":"VEC3","min":[-0.8872999,-6.294613,5.3959017],"max":[-0.79941475,-6.2494793,5.4381285]},{"bufferView":13,"componentType":5126,"count":263,"type":"VEC3"},{"bufferView":14,"componentType":5126,"count":263,"type":"VEC2"},{"bufferView":15,"componentType":5123,"count":3852,"type":"SCALAR"},{"bufferView":16,"componentType":5126,"count":130,"type":"VEC3","min":[-0.82603586,-6.282077,5.377429],"max":[-0.8072679,-6.2633085,5.4550962]},{"bufferView":17,"componentType":5126,"count":130,"type":"VEC3"},{"bufferView":18,"componentType":5126,"count":130,"type":"VEC2"},{"bufferView":19,"componentType":5123,"count":1692,"type":"SCALAR"},{"bufferView":20,"componentType":5126,"count":4130,"type":"VEC3","min":[-12.807594,-6.3234615,3.6097426],"max":[-0.880173,-6.216016,5.7081685]},{"bufferView":21,"componentType":5126,"count":4130,"type":"VEC3"},{"bufferView":22,"componentType":5126,"count":4130,"type":"VEC2"},{"bufferView":23,"componentType":5123,"count":74304,"type":"SCALAR"},{"bufferView":24,"componentType":5126,"count":263,"type":"VEC3","min":[-0.59929687,-6.2172556,5.357339],"max":[-0.5148154,-5.861803,5.450202]},{"bufferView":25,"componentType":5126,"count":263,"type":"VEC3"},{"bufferView":26,"componentType":5126,"count":263,"type":"VEC2"},{"bufferView":27,"componentType":5123,"count":3852,"type":"SCALAR"},{"bufferView":28,"componentType":5126,"count":1988,"type":"VEC3","min":[-0.7212958,-5.760928,2.7427156],"max":[-0.2566755,5.495554,5.7859197]},{"bufferView":29,"componentType":5126,"count":1988,"type":"VEC3"},{"bufferView":30,"componentType":5126,"count":1988,"type":"VEC2"},{"bufferView":31,"componentType":5123,"count":35712,"type":"SCALAR"},{"bufferView":32,"componentType":5126,"count":263,"type":"VEC3","min":[-0.85716164,5.954212,5.2887597],"max":[-0.7882761,6.060402,5.5444217]},{"bufferView":33,"componentType":5126,"count":263,"type":"VEC3"},{"bufferView":34,"componentType":5126,"count":263,"type":"VEC2"},{"bufferView":35,"componentType":5123,"count":3852,"type":"SCALAR"},{"bufferView":36,"componentType":5126,"count":263,"type":"VEC3","min":[-1.0212301,5.9563656,5.2887597],"max":[-0.9411012,6.0625553,5.5444217]},{"bufferView":37,"componentType":5126,"count":263,"type":"VEC3"},{"bufferView":38,"componentType":5126,"count":263,"type":"VEC2"},{"bufferView":39,"componentType":5123,"count":3852,"type":"SCALAR"},{"bufferView":40,"componentType":5126,"count":563,"type":"VEC3","min":[-0.9152176,5.983528,5.3810544],"max":[-0.8374371,6.0286617,5.4526258]},{"bufferView":41,"componentType":5126,"count":563,"type":"VEC3"},{"bufferView":42,"componentType":5126,"count":563,"type":"VEC2"},{"bufferView":43,"componentType":5123,"count":8604,"type":"SCALAR"},{"bufferView":44,"componentType":5126,"count":263,"type":"VEC3","min":[-0.96563214,5.983528,5.395901],"max":[-0.877747,6.0286617,5.438128]},{"bufferView":45,"componentType":5126,"count":263,"type":"VEC3"},{"bufferView":46,"componentType":5126,"count":263,"type":"VEC2"},{"bufferView":47,"componentType":5123,"count":3852,"type":"SCALAR"},{"bufferView":48,"componentType":5126,"count":130,"type":"VEC3","min":[-0.90436816,5.996065,5.3774285],"max":[-0.8856002,6.0148335,5.455096]},{"bufferView":49,"componentType":5126,"count":130,"type":"VEC3"},{"bufferView":50,"componentType":5126,"count":130,"type":"VEC2"},{"bufferView":51,"componentType":5123,"count":1692,"type":"SCALAR"},{"bufferView":52,"componentType":5126,"count":4130,"type":"VEC3","min":[-12.885927,5.9546804,3.6097426],"max":[-0.9585058,6.062126,5.7081685]},{"bufferView":53,"componentType":5126,"count":4130,"type":"VEC3"},{"bufferView":54,"componentType":5126,"count":4130,"type":"VEC2"},{"bufferView":55,"componentType":5123,"count":74304,"type":"SCALAR"},{"bufferView":56,"componentType":5126,"count":263,"type":"VEC3","min":[-0.6830055,5.6109495,5.357339],"max":[-0.58834034,5.967228,5.450202]},{"bufferView":57,"componentType":5126,"count":263,"type":"VEC3"},{"bufferView":58,"componentType":5126,"count":263,"type":"VEC2"},{"bufferView":59,"componentType":5123,"count":3852,"type":"SCALAR"},{"bufferView":60,"componentType":5126,"count":3976,"type":"VEC3","min":[-0.8290103,-6.3503675,2.5435417],"max":[-0.14869688,6.092944,6.0017734]},{"bufferView":61,"componentType":5126,"count":3976,"type":"VEC3"},{"bufferView":62,"componentType":5126,"count":3976,"type":"VEC2"},{"bufferView":63,"componentType":5123,"count":71604,"type":"SCALAR"},{"bufferView":64,"componentType":5126,"count":284,"type":"VEC3","min":[-2.304356,-6.330551,5.2279263],"max":[-1.2289263,-6.3302836,5.545577]},{"bufferView":65,"componentType":5126,"count":284,"type":"VEC3"},{"bufferView":66,"componentType":5126,"count":284,"type":"VEC2"},{"bufferView":67,"componentType":5123,"count":2502,"type":"SCALAR"},{"bufferView":68,"componentType":5126,"count":6,"type":"VEC3","min":[-39.611866,-34.290268,2.1063833],"max":[28.17368,33.495277,46.1989]},{"bufferView":69,"componentType":5126,"count":6,"type":"VEC3"},{"bufferView":70,"componentType":5126,"count":6,"type":"VEC2"},{"bufferView":71,"componentType":5123,"count":36,"type":"SCALAR"}],"bufferViews":[{"target":34962,"buffer":0,"byteLength":3156,"byteOffset":0},{"target":34962,"buffer":0,"byteLength":3156,"byteOffset":3156},{"target":34962,"buffer":0,"byteLength":2104,"byteOffset":6312},{"target":34963,"buffer":0,"byteLength":7704,"byteOffset":8416},{"target":34962,"buffer":0,"byteLength":3156,"byteOffset":16120},{"target":34962,"buffer":0,"byteLength":3156,"byteOffset":19276},{"target":34962,"buffer":0,"byteLength":2104,"byteOffset":22432},{"target":34963,"buffer":0,"byteLength":7704,"byteOffset":24536},{"target":34962,"buffer":0,"byteLength":6756,"byteOffset":32240},{"target":34962,"buffer":0,"byteLength":6756,"byteOffset":38996},{"target":34962,"buffer":0,"byteLength":4504,"byteOffset":45752},{"target":34963,"buffer":0,"byteLength":17208,"byteOffset":50256},{"target":34962,"buffer":0,"byteLength":3156,"byteOffset":67464},{"target":34962,"buffer":0,"byteLength":3156,"byteOffset":70620},{"target":34962,"buffer":0,"byteLength":2104,"byteOffset":73776},{"target":34963,"buffer":0,"byteLength":7704,"byteOffset":75880},{"target":34962,"buffer":0,"byteLength":1560,"byteOffset":83584},{"target":34962,"buffer":0,"byteLength":1560,"byteOffset":85144},{"target":34962,"buffer":0,"byteLength":1040,"byteOffset":86704},{"target":34963,"buffer":0,"byteLength":3384,"byteOffset":87744},{"target":34962,"buffer":0,"byteLength":49560,"byteOffset":91128},{"target":34962,"buffer":0,"byteLength":49560,"byteOffset":140688},{"target":34962,"buffer":0,"byteLength":33040,"byteOffset":190248},{"target":34963,"buffer":0,"byteLength":148608,"byteOffset":223288},{"target":34962,"buffer":0,"byteLength":3156,"byteOffset":371896},{"target":34962,"buffer":0,"byteLength":3156,"byteOffset":375052},{"target":34962,"buffer":0,"byteLength":2104,"byteOffset":378208},{"target":34963,"buffer":0,"byteLength":7704,"byteOffset":380312},{"target":34962,"buffer":0,"byteLength":23856,"byteOffset":388016},{"target":34962,"buffer":0,"byteLength":23856,"byteOffset":411872},{"target":34962,"buffer":0,"byteLength":15904,"byteOffset":435728},{"target":34963,"buffer":0,"byteLength":71424,"byteOffset":451632},{"target":34962,"buffer":0,"byteLength":3156,"byteOffset":523056},{"target":34962,"buffer":0,"byteLength":3156,"byteOffset":526212},{"target":34962,"buffer":0,"byteLength":2104,"byteOffset":529368},{"target":34963,"buffer":0,"byteLength":7704,"byteOffset":531472},{"target":34962,"buffer":0,"byteLength":3156,"byteOffset":539176},{"target":34962,"buffer":0,"byteLength":3156,"byteOffset":542332},{"target":34962,"buffer":0,"byteLength":2104,"byteOffset":545488},{"target":34963,"buffer":0,"byteLength":7704,"byteOffset":547592},{"target":34962,"buffer":0,"byteLength":6756,"byteOffset":555296},{"target":34962,"buffer":0,"byteLength":6756,"byteOffset":562052},{"target":34962,"buffer":0,"byteLength":4504,"byteOffset":568808},{"target":34963,"buffer":0,"byteLength":17208,"byteOffset":573312},{"target":34962,"buffer":0,"byteLength":3156,"byteOffset":590520},{"target":34962,"buffer":0,"byteLength":3156,"byteOffset":593676},{"target":34962,"buffer":0,"byteLength":2104,"byteOffset":596832},{"target":34963,"buffer":0,"byteLength":7704,"byteOffset":598936},{"target":34962,"buffer":0,"byteLength":1560,"byteOffset":606640},{"target":34962,"buffer":0,"byteLength":1560,"byteOffset":608200},{"target":34962,"buffer":0,"byteLength":1040,"byteOffset":609760},{"target":34963,"buffer":0,"byteLength":3384,"byteOffset":610800},{"target":34962,"buffer":0,"byteLength":49560,"byteOffset":614184},{"target":34962,"buffer":0,"byteLength":49560,"byteOffset":663744},{"target":34962,"buffer":0,"byteLength":33040,"byteOffset":713304},{"target":34963,"buffer":0,"byteLength":148608,"byteOffset":746344},{"target":34962,"buffer":0,"byteLength":3156,"byteOffset":894952},{"target":34962,"buffer":0,"byteLength":3156,"byteOffset":898108},{"target":34962,"buffer":0,"byteLength":2104,"byteOffset":901264},{"target":34963,"buffer":0,"byteLength":7704,"byteOffset":903368},{"target":34962,"buffer":0,"byteLength":47712,"byteOffset":911072},{"target":34962,"buffer":0,"byteLength":47712,"byteOffset":958784},{"target":34962,"buffer":0,"byteLength":31808,"byteOffset":1006496},{"target":34963,"buffer":0,"byteLength":143208,"byteOffset":1038304},{"target":34962,"buffer":0,"byteLength":3408,"byteOffset":1181512},{"target":34962,"buffer":0,"byteLength":3408,"byteOffset":1184920},{"target":34962,"buffer":0,"byteLength":2272,"byteOffset":1188328},{"target":34963,"buffer":0,"byteLength":5004,"byteOffset":1190600},{"target":34962,"buffer":0,"byteLength":72,"byteOffset":1195604},{"target":34962,"buffer":0,"byteLength":72,"byteOffset":1195676},{"target":34962,"buffer":0,"byteLength":48,"byteOffset":1195748},{"target":34963,"buffer":0,"byteLength":72,"byteOffset":1195796}],"buffers":[{"byteLength":1195868,"uri":"data:application/octet-stream;base64,"}]}